<svg xmlns="http://www.w3.org/2000/svg" version="1.0" preserveAspectRatio="xMidYMid meet" viewBox="68.9 431.32 662.6 256.6">

<g transform="translate(0.000000,1024.000000) scale(0.100000,-0.100000)" fill="#000000" stroke="none">
<path d="M3777 5915 c-300 -53 -544 -215 -689 -457 -37 -62 -98 -198 -98 -219 0 -5 26 -16 58 -25 138 -39 488 -152 514 -165 14 -7 20 2 38 58 40 124 82 178 171 224 90 45 176 56 271 35 188 -42 283 -191 215 -339 -27 -59 -65 -94 -143 -129 -40 -18 -72 -23 -176 -26 l-128 -4 0 -213 0 -213 143 -4 c117 -4 152 -9 200 -27 112 -44 167 -119 167 -227 -1 -106 -60 -192 -169 -243 -51 -24 -67 -26 -181 -26 -116 0 -129 2 -181 28 -92 45 -174 143 -208 250 -7 20 -16 37 -19 37 -4 0 -134 -41 -289 -92 -174 -57 -283 -97 -283 -105 0 -27 78 -191 120 -253 51 -76 165 -192 232 -238 76 -52 220 -120 315 -148 77 -24 110 -28 265 -32 188 -5 271 6 408 50 224 73 374 182 471 342 101 168 134 282 126 431 -11 198 -109 355 -277 444 -34 18 -60 34 -58 36 2 2 26 20 54 42 28 21 64 54 81 73 41 48 108 173 127 239 21 70 20 192 0 284 -64 284 -324 523 -654 602 -91 22 -325 28 -423 10z"/>
<path d="M6173 5920 c-204 -29 -394 -114 -535 -239 -109 -97 -221 -285 -270 -456 -23 -79 -23 -87 -23 -580 0 -491 0 -501 23 -579 100 -345 341 -579 697 -676 113 -31 318 -38 438 -16 177 34 359 117 479 220 88 76 209 247 264 376 65 150 69 193 69 705 0 449 -1 462 -23 540 -31 109 -121 286 -185 365 -121 149 -321 275 -507 320 -97 24 -325 35 -427 20z m335 -589 c120 -65 185 -166 202 -313 13 -106 12 -660 0 -755 -30 -234 -244 -383 -473 -329 -84 20 -117 37 -174 89 -111 102 -123 157 -123 582 1 375 9 492 40 562 36 82 111 146 214 184 40 14 73 18 151 16 92 -2 105 -5 163 -36z"/>
<path d="M1481 5661 c-12 -8 -13 -69 -10 -378 l4 -368 -379 -3 c-260 -1 -383 -6 -393 -13 -18 -16 -19 -549 -1 -567 9 -9 111 -12 396 -12 l385 0 -4 -367 -4 -368 299 -3 c233 -2 301 1 308 10 4 7 5 173 1 369 -6 346 -6 357 13 361 10 2 185 2 388 0 307 -4 370 -2 377 9 14 23 11 553 -3 567 -9 9 -111 12 -397 12 l-384 0 6 368 c5 276 3 372 -5 380 -14 14 -575 17 -597 3z"/>
</g>
</svg>